<mxfile host="app.diagrams.net" modified="2023-08-11T12:13:48.440Z" agent="Mozilla/5.0 (Windows NT 10.0; Win64; x64) AppleWebKit/537.36 (KHTML, like Gecko) Chrome/115.0.0.0 Safari/537.36 Edg/115.0.1901.200" etag="TDq4_i8XB_SHbR5M-R4K" version="21.6.7" type="github">
  <diagram name="第 1 页" id="GlqfTS8_M40UGAXC7Djb">
    <mxGraphModel dx="3465" dy="2015" grid="1" gridSize="10" guides="1" tooltips="1" connect="1" arrows="1" fold="1" page="1" pageScale="1" pageWidth="850" pageHeight="1100" math="0" shadow="0">
      <root>
        <mxCell id="0" />
        <mxCell id="1" parent="0" />
        <mxCell id="plGlUH5s6CTPv3xWeVoY-162" value="" style="rounded=0;whiteSpace=wrap;html=1;" vertex="1" parent="1">
          <mxGeometry width="1870" height="640" as="geometry" />
        </mxCell>
        <mxCell id="plGlUH5s6CTPv3xWeVoY-163" value="基于商品生命周期归类的需求量计算规则" style="text;html=1;align=center;verticalAlign=middle;resizable=0;points=[];autosize=1;strokeColor=none;fillColor=none;fontSize=20;fontStyle=1" vertex="1" parent="1">
          <mxGeometry width="380" height="40" as="geometry" />
        </mxCell>
        <mxCell id="plGlUH5s6CTPv3xWeVoY-164" value="" style="rounded=0;whiteSpace=wrap;html=1;fillColor=#f9f7ed;strokeColor=#36393d;" vertex="1" parent="1">
          <mxGeometry x="180" y="70" width="880" height="400" as="geometry" />
        </mxCell>
        <mxCell id="plGlUH5s6CTPv3xWeVoY-165" value="1. 导入期需求量" style="rounded=1;whiteSpace=wrap;html=1;fillColor=#dae8fc;strokeColor=#6c8ebf;" vertex="1" parent="1">
          <mxGeometry x="190" y="130" width="120" height="60" as="geometry" />
        </mxCell>
        <mxCell id="plGlUH5s6CTPv3xWeVoY-166" value="2. 补货（预测）&lt;br&gt;需求量" style="rounded=1;whiteSpace=wrap;html=1;fillColor=#ffe6cc;strokeColor=#d79b00;" vertex="1" parent="1">
          <mxGeometry x="190" y="210" width="120" height="60" as="geometry" />
        </mxCell>
        <mxCell id="plGlUH5s6CTPv3xWeVoY-167" value="筛选计算规则" style="text;html=1;align=center;verticalAlign=middle;resizable=0;points=[];autosize=1;strokeColor=none;fillColor=none;fontStyle=1" vertex="1" parent="1">
          <mxGeometry x="180" y="80" width="100" height="30" as="geometry" />
        </mxCell>
        <mxCell id="plGlUH5s6CTPv3xWeVoY-168" value="3. 补货（销补）&lt;br&gt;需求量" style="rounded=1;whiteSpace=wrap;html=1;fillColor=#d5e8d4;strokeColor=#82b366;" vertex="1" parent="1">
          <mxGeometry x="190" y="290" width="120" height="60" as="geometry" />
        </mxCell>
        <mxCell id="plGlUH5s6CTPv3xWeVoY-169" value="4. 退（换）货需求量" style="rounded=1;whiteSpace=wrap;html=1;fillColor=#d5e8d4;strokeColor=#82b366;" vertex="1" parent="1">
          <mxGeometry x="190" y="370" width="120" height="60" as="geometry" />
        </mxCell>
        <mxCell id="plGlUH5s6CTPv3xWeVoY-170" value="" style="edgeStyle=none;orthogonalLoop=1;jettySize=auto;html=1;shape=flexArrow;rounded=1;startSize=8;endSize=8;fillColor=default;gradientColor=#9999FF;gradientDirection=east;strokeColor=none;" edge="1" parent="1">
          <mxGeometry width="100" relative="1" as="geometry">
            <mxPoint x="50" y="399.71" as="sourcePoint" />
            <mxPoint x="150" y="399.71" as="targetPoint" />
            <Array as="points" />
          </mxGeometry>
        </mxCell>
        <mxCell id="plGlUH5s6CTPv3xWeVoY-171" value="" style="edgeStyle=none;orthogonalLoop=1;jettySize=auto;html=1;shape=flexArrow;rounded=1;startSize=8;endSize=8;fillColor=default;gradientColor=#9999FF;gradientDirection=east;strokeColor=none;" edge="1" parent="1">
          <mxGeometry width="100" relative="1" as="geometry">
            <mxPoint x="50" y="320" as="sourcePoint" />
            <mxPoint x="150" y="320" as="targetPoint" />
            <Array as="points" />
          </mxGeometry>
        </mxCell>
        <mxCell id="plGlUH5s6CTPv3xWeVoY-172" value="" style="edgeStyle=none;orthogonalLoop=1;jettySize=auto;html=1;shape=flexArrow;rounded=1;startSize=8;endSize=8;fillColor=default;gradientColor=#9999FF;gradientDirection=east;strokeColor=none;" edge="1" parent="1">
          <mxGeometry width="100" relative="1" as="geometry">
            <mxPoint x="50" y="239.70999999999998" as="sourcePoint" />
            <mxPoint x="150" y="239.70999999999998" as="targetPoint" />
            <Array as="points" />
          </mxGeometry>
        </mxCell>
        <mxCell id="plGlUH5s6CTPv3xWeVoY-173" value="温&lt;br&gt;度" style="text;html=1;align=center;verticalAlign=middle;resizable=0;points=[];autosize=1;strokeColor=none;fillColor=none;" vertex="1" parent="1">
          <mxGeometry x="10" y="170" width="40" height="40" as="geometry" />
        </mxCell>
        <mxCell id="plGlUH5s6CTPv3xWeVoY-174" value="" style="edgeStyle=none;orthogonalLoop=1;jettySize=auto;html=1;shape=flexArrow;rounded=1;startSize=8;endSize=8;fillColor=default;gradientColor=#9999FF;gradientDirection=east;strokeColor=none;" edge="1" parent="1">
          <mxGeometry width="100" relative="1" as="geometry">
            <mxPoint x="50" y="159.70999999999998" as="sourcePoint" />
            <mxPoint x="150" y="159.70999999999998" as="targetPoint" />
            <Array as="points" />
          </mxGeometry>
        </mxCell>
        <mxCell id="plGlUH5s6CTPv3xWeVoY-175" value="&lt;span style=&quot;color: rgb(0, 0, 0); font-family: Helvetica; font-size: 12px; font-style: normal; font-variant-ligatures: normal; font-variant-caps: normal; font-weight: 400; letter-spacing: normal; orphans: 2; text-align: center; text-indent: 0px; text-transform: none; widows: 2; word-spacing: 0px; -webkit-text-stroke-width: 0px; background-color: rgb(251, 251, 251); text-decoration-thickness: initial; text-decoration-style: initial; text-decoration-color: initial; float: none; display: inline !important;&quot;&gt;销&lt;br&gt;售&lt;br&gt;状&lt;br&gt;况&lt;/span&gt;" style="text;whiteSpace=wrap;html=1;" vertex="1" parent="1">
          <mxGeometry x="21" y="310" width="90" height="40" as="geometry" />
        </mxCell>
        <mxCell id="plGlUH5s6CTPv3xWeVoY-176" value="" style="rounded=0;whiteSpace=wrap;html=1;strokeColor=#36393d;fillColor=#cce5ff;" vertex="1" parent="1">
          <mxGeometry x="180" y="490" width="880" height="120" as="geometry" />
        </mxCell>
        <mxCell id="plGlUH5s6CTPv3xWeVoY-177" value="调整/限制规则" style="text;html=1;align=center;verticalAlign=middle;resizable=0;points=[];autosize=1;strokeColor=none;fillColor=none;fontStyle=1" vertex="1" parent="1">
          <mxGeometry x="180" y="500" width="100" height="30" as="geometry" />
        </mxCell>
        <mxCell id="plGlUH5s6CTPv3xWeVoY-178" value="需求量计算优先级" style="rounded=1;whiteSpace=wrap;html=1;" vertex="1" parent="1">
          <mxGeometry x="190" y="530" width="120" height="60" as="geometry" />
        </mxCell>
        <mxCell id="plGlUH5s6CTPv3xWeVoY-179" value="需求量缩放比例" style="rounded=1;whiteSpace=wrap;html=1;" vertex="1" parent="1">
          <mxGeometry x="400" y="530" width="120" height="60" as="geometry" />
        </mxCell>
        <mxCell id="plGlUH5s6CTPv3xWeVoY-180" value="" style="edgeStyle=none;orthogonalLoop=1;jettySize=auto;html=1;shape=flexArrow;rounded=1;startSize=8;endSize=8;" edge="1" parent="1">
          <mxGeometry width="100" relative="1" as="geometry">
            <mxPoint x="1067" y="150" as="sourcePoint" />
            <mxPoint x="1133" y="150.46999999999997" as="targetPoint" />
            <Array as="points" />
          </mxGeometry>
        </mxCell>
        <mxCell id="plGlUH5s6CTPv3xWeVoY-181" value="单店需求量" style="text;html=1;align=center;verticalAlign=middle;resizable=0;points=[];autosize=1;strokeColor=none;fillColor=none;fontStyle=1" vertex="1" parent="1">
          <mxGeometry x="1160" y="165" width="80" height="30" as="geometry" />
        </mxCell>
        <mxCell id="plGlUH5s6CTPv3xWeVoY-182" value="" style="shape=table;startSize=0;container=1;collapsible=0;childLayout=tableLayout;fontSize=16;" vertex="1" parent="1">
          <mxGeometry x="1162" y="230" width="660" height="120" as="geometry" />
        </mxCell>
        <mxCell id="plGlUH5s6CTPv3xWeVoY-183" value="" style="shape=tableRow;horizontal=0;startSize=0;swimlaneHead=0;swimlaneBody=0;strokeColor=inherit;top=0;left=0;bottom=0;right=0;collapsible=0;dropTarget=0;fillColor=none;points=[[0,0.5],[1,0.5]];portConstraint=eastwest;fontSize=16;" vertex="1" parent="plGlUH5s6CTPv3xWeVoY-182">
          <mxGeometry width="660" height="40" as="geometry" />
        </mxCell>
        <mxCell id="plGlUH5s6CTPv3xWeVoY-184" value="门店" style="shape=partialRectangle;html=1;whiteSpace=wrap;connectable=0;strokeColor=inherit;overflow=hidden;fillColor=none;top=0;left=0;bottom=0;right=0;pointerEvents=1;fontSize=16;" vertex="1" parent="plGlUH5s6CTPv3xWeVoY-183">
          <mxGeometry width="60" height="40" as="geometry">
            <mxRectangle width="60" height="40" as="alternateBounds" />
          </mxGeometry>
        </mxCell>
        <mxCell id="plGlUH5s6CTPv3xWeVoY-185" value="品牌" style="shape=partialRectangle;html=1;whiteSpace=wrap;connectable=0;strokeColor=inherit;overflow=hidden;fillColor=none;top=0;left=0;bottom=0;right=0;pointerEvents=1;fontSize=16;" vertex="1" parent="plGlUH5s6CTPv3xWeVoY-183">
          <mxGeometry x="60" width="60" height="40" as="geometry">
            <mxRectangle width="60" height="40" as="alternateBounds" />
          </mxGeometry>
        </mxCell>
        <mxCell id="plGlUH5s6CTPv3xWeVoY-186" value="季节" style="shape=partialRectangle;html=1;whiteSpace=wrap;connectable=0;strokeColor=inherit;overflow=hidden;fillColor=none;top=0;left=0;bottom=0;right=0;pointerEvents=1;fontSize=16;" vertex="1" parent="plGlUH5s6CTPv3xWeVoY-183">
          <mxGeometry x="120" width="60" height="40" as="geometry">
            <mxRectangle width="60" height="40" as="alternateBounds" />
          </mxGeometry>
        </mxCell>
        <mxCell id="plGlUH5s6CTPv3xWeVoY-187" value="产品线" style="shape=partialRectangle;html=1;whiteSpace=wrap;connectable=0;strokeColor=inherit;overflow=hidden;fillColor=none;top=0;left=0;bottom=0;right=0;pointerEvents=1;fontSize=16;" vertex="1" parent="plGlUH5s6CTPv3xWeVoY-183">
          <mxGeometry x="180" width="60" height="40" as="geometry">
            <mxRectangle width="60" height="40" as="alternateBounds" />
          </mxGeometry>
        </mxCell>
        <mxCell id="plGlUH5s6CTPv3xWeVoY-188" value="结构" style="shape=partialRectangle;html=1;whiteSpace=wrap;connectable=0;strokeColor=inherit;overflow=hidden;fillColor=none;top=0;left=0;bottom=0;right=0;pointerEvents=1;fontSize=16;" vertex="1" parent="plGlUH5s6CTPv3xWeVoY-183">
          <mxGeometry x="240" width="60" height="40" as="geometry">
            <mxRectangle width="60" height="40" as="alternateBounds" />
          </mxGeometry>
        </mxCell>
        <mxCell id="plGlUH5s6CTPv3xWeVoY-189" value="品类" style="shape=partialRectangle;html=1;whiteSpace=wrap;connectable=0;strokeColor=inherit;overflow=hidden;fillColor=none;top=0;left=0;bottom=0;right=0;pointerEvents=1;fontSize=16;" vertex="1" parent="plGlUH5s6CTPv3xWeVoY-183">
          <mxGeometry x="300" width="60" height="40" as="geometry">
            <mxRectangle width="60" height="40" as="alternateBounds" />
          </mxGeometry>
        </mxCell>
        <mxCell id="plGlUH5s6CTPv3xWeVoY-190" value="厚度" style="shape=partialRectangle;html=1;whiteSpace=wrap;connectable=0;strokeColor=inherit;overflow=hidden;fillColor=none;top=0;left=0;bottom=0;right=0;pointerEvents=1;fontSize=16;" vertex="1" parent="plGlUH5s6CTPv3xWeVoY-183">
          <mxGeometry x="360" width="60" height="40" as="geometry">
            <mxRectangle width="60" height="40" as="alternateBounds" />
          </mxGeometry>
        </mxCell>
        <mxCell id="plGlUH5s6CTPv3xWeVoY-191" value="款式" style="shape=partialRectangle;html=1;whiteSpace=wrap;connectable=0;strokeColor=inherit;overflow=hidden;fillColor=none;top=0;left=0;bottom=0;right=0;pointerEvents=1;fontSize=16;" vertex="1" parent="plGlUH5s6CTPv3xWeVoY-183">
          <mxGeometry x="420" width="60" height="40" as="geometry">
            <mxRectangle width="60" height="40" as="alternateBounds" />
          </mxGeometry>
        </mxCell>
        <mxCell id="plGlUH5s6CTPv3xWeVoY-192" value="元素" style="shape=partialRectangle;html=1;whiteSpace=wrap;connectable=0;strokeColor=inherit;overflow=hidden;fillColor=none;top=0;left=0;bottom=0;right=0;pointerEvents=1;fontSize=16;" vertex="1" parent="plGlUH5s6CTPv3xWeVoY-183">
          <mxGeometry x="480" width="60" height="40" as="geometry">
            <mxRectangle width="60" height="40" as="alternateBounds" />
          </mxGeometry>
        </mxCell>
        <mxCell id="plGlUH5s6CTPv3xWeVoY-193" value="……" style="shape=partialRectangle;html=1;whiteSpace=wrap;connectable=0;strokeColor=inherit;overflow=hidden;fillColor=none;top=0;left=0;bottom=0;right=0;pointerEvents=1;fontSize=16;" vertex="1" parent="plGlUH5s6CTPv3xWeVoY-183">
          <mxGeometry x="540" width="60" height="40" as="geometry">
            <mxRectangle width="60" height="40" as="alternateBounds" />
          </mxGeometry>
        </mxCell>
        <mxCell id="plGlUH5s6CTPv3xWeVoY-194" value="需求量（件数）" style="shape=partialRectangle;html=1;whiteSpace=wrap;connectable=0;strokeColor=inherit;overflow=hidden;fillColor=none;top=0;left=0;bottom=0;right=0;pointerEvents=1;fontSize=16;" vertex="1" parent="plGlUH5s6CTPv3xWeVoY-183">
          <mxGeometry x="600" width="60" height="40" as="geometry">
            <mxRectangle width="60" height="40" as="alternateBounds" />
          </mxGeometry>
        </mxCell>
        <mxCell id="plGlUH5s6CTPv3xWeVoY-195" value="" style="shape=tableRow;horizontal=0;startSize=0;swimlaneHead=0;swimlaneBody=0;strokeColor=inherit;top=0;left=0;bottom=0;right=0;collapsible=0;dropTarget=0;fillColor=none;points=[[0,0.5],[1,0.5]];portConstraint=eastwest;fontSize=16;" vertex="1" parent="plGlUH5s6CTPv3xWeVoY-182">
          <mxGeometry y="40" width="660" height="40" as="geometry" />
        </mxCell>
        <mxCell id="plGlUH5s6CTPv3xWeVoY-196" value="S01" style="shape=partialRectangle;html=1;whiteSpace=wrap;connectable=0;strokeColor=inherit;overflow=hidden;fillColor=none;top=0;left=0;bottom=0;right=0;pointerEvents=1;fontSize=16;" vertex="1" parent="plGlUH5s6CTPv3xWeVoY-195">
          <mxGeometry width="60" height="40" as="geometry">
            <mxRectangle width="60" height="40" as="alternateBounds" />
          </mxGeometry>
        </mxCell>
        <mxCell id="plGlUH5s6CTPv3xWeVoY-197" value="男装" style="shape=partialRectangle;html=1;whiteSpace=wrap;connectable=0;strokeColor=inherit;overflow=hidden;fillColor=none;top=0;left=0;bottom=0;right=0;pointerEvents=1;fontSize=16;" vertex="1" parent="plGlUH5s6CTPv3xWeVoY-195">
          <mxGeometry x="60" width="60" height="40" as="geometry">
            <mxRectangle width="60" height="40" as="alternateBounds" />
          </mxGeometry>
        </mxCell>
        <mxCell id="plGlUH5s6CTPv3xWeVoY-198" value="夏" style="shape=partialRectangle;html=1;whiteSpace=wrap;connectable=0;strokeColor=inherit;overflow=hidden;fillColor=none;top=0;left=0;bottom=0;right=0;pointerEvents=1;fontSize=16;" vertex="1" parent="plGlUH5s6CTPv3xWeVoY-195">
          <mxGeometry x="120" width="60" height="40" as="geometry">
            <mxRectangle width="60" height="40" as="alternateBounds" />
          </mxGeometry>
        </mxCell>
        <mxCell id="plGlUH5s6CTPv3xWeVoY-199" value="简约百搭" style="shape=partialRectangle;html=1;whiteSpace=wrap;connectable=0;strokeColor=inherit;overflow=hidden;fillColor=none;top=0;left=0;bottom=0;right=0;pointerEvents=1;fontSize=16;" vertex="1" parent="plGlUH5s6CTPv3xWeVoY-195">
          <mxGeometry x="180" width="60" height="40" as="geometry">
            <mxRectangle width="60" height="40" as="alternateBounds" />
          </mxGeometry>
        </mxCell>
        <mxCell id="plGlUH5s6CTPv3xWeVoY-200" value="上装" style="shape=partialRectangle;html=1;whiteSpace=wrap;connectable=0;strokeColor=inherit;overflow=hidden;fillColor=none;top=0;left=0;bottom=0;right=0;pointerEvents=1;fontSize=16;" vertex="1" parent="plGlUH5s6CTPv3xWeVoY-195">
          <mxGeometry x="240" width="60" height="40" as="geometry">
            <mxRectangle width="60" height="40" as="alternateBounds" />
          </mxGeometry>
        </mxCell>
        <mxCell id="plGlUH5s6CTPv3xWeVoY-201" value="T恤" style="shape=partialRectangle;html=1;whiteSpace=wrap;connectable=0;strokeColor=inherit;overflow=hidden;fillColor=none;top=0;left=0;bottom=0;right=0;pointerEvents=1;fontSize=16;" vertex="1" parent="plGlUH5s6CTPv3xWeVoY-195">
          <mxGeometry x="300" width="60" height="40" as="geometry">
            <mxRectangle width="60" height="40" as="alternateBounds" />
          </mxGeometry>
        </mxCell>
        <mxCell id="plGlUH5s6CTPv3xWeVoY-202" value="天丝" style="shape=partialRectangle;html=1;whiteSpace=wrap;connectable=0;strokeColor=inherit;overflow=hidden;fillColor=none;top=0;left=0;bottom=0;right=0;pointerEvents=1;fontSize=16;" vertex="1" parent="plGlUH5s6CTPv3xWeVoY-195">
          <mxGeometry x="360" width="60" height="40" as="geometry">
            <mxRectangle width="60" height="40" as="alternateBounds" />
          </mxGeometry>
        </mxCell>
        <mxCell id="plGlUH5s6CTPv3xWeVoY-203" value="风格款" style="shape=partialRectangle;html=1;whiteSpace=wrap;connectable=0;strokeColor=inherit;overflow=hidden;fillColor=none;top=0;left=0;bottom=0;right=0;pointerEvents=1;fontSize=16;" vertex="1" parent="plGlUH5s6CTPv3xWeVoY-195">
          <mxGeometry x="420" width="60" height="40" as="geometry">
            <mxRectangle width="60" height="40" as="alternateBounds" />
          </mxGeometry>
        </mxCell>
        <mxCell id="plGlUH5s6CTPv3xWeVoY-204" value="净版" style="shape=partialRectangle;html=1;whiteSpace=wrap;connectable=0;strokeColor=inherit;overflow=hidden;fillColor=none;top=0;left=0;bottom=0;right=0;pointerEvents=1;fontSize=16;" vertex="1" parent="plGlUH5s6CTPv3xWeVoY-195">
          <mxGeometry x="480" width="60" height="40" as="geometry">
            <mxRectangle width="60" height="40" as="alternateBounds" />
          </mxGeometry>
        </mxCell>
        <mxCell id="plGlUH5s6CTPv3xWeVoY-205" value="……" style="shape=partialRectangle;html=1;whiteSpace=wrap;connectable=0;strokeColor=inherit;overflow=hidden;fillColor=none;top=0;left=0;bottom=0;right=0;pointerEvents=1;fontSize=16;" vertex="1" parent="plGlUH5s6CTPv3xWeVoY-195">
          <mxGeometry x="540" width="60" height="40" as="geometry">
            <mxRectangle width="60" height="40" as="alternateBounds" />
          </mxGeometry>
        </mxCell>
        <mxCell id="plGlUH5s6CTPv3xWeVoY-206" value="5" style="shape=partialRectangle;html=1;whiteSpace=wrap;connectable=0;strokeColor=inherit;overflow=hidden;fillColor=none;top=0;left=0;bottom=0;right=0;pointerEvents=1;fontSize=16;" vertex="1" parent="plGlUH5s6CTPv3xWeVoY-195">
          <mxGeometry x="600" width="60" height="40" as="geometry">
            <mxRectangle width="60" height="40" as="alternateBounds" />
          </mxGeometry>
        </mxCell>
        <mxCell id="plGlUH5s6CTPv3xWeVoY-207" style="shape=tableRow;horizontal=0;startSize=0;swimlaneHead=0;swimlaneBody=0;strokeColor=inherit;top=0;left=0;bottom=0;right=0;collapsible=0;dropTarget=0;fillColor=none;points=[[0,0.5],[1,0.5]];portConstraint=eastwest;fontSize=16;" vertex="1" parent="plGlUH5s6CTPv3xWeVoY-182">
          <mxGeometry y="80" width="660" height="40" as="geometry" />
        </mxCell>
        <mxCell id="plGlUH5s6CTPv3xWeVoY-208" value="S01" style="shape=partialRectangle;html=1;whiteSpace=wrap;connectable=0;strokeColor=inherit;overflow=hidden;fillColor=none;top=0;left=0;bottom=0;right=0;pointerEvents=1;fontSize=16;" vertex="1" parent="plGlUH5s6CTPv3xWeVoY-207">
          <mxGeometry width="60" height="40" as="geometry">
            <mxRectangle width="60" height="40" as="alternateBounds" />
          </mxGeometry>
        </mxCell>
        <mxCell id="plGlUH5s6CTPv3xWeVoY-209" value="男装" style="shape=partialRectangle;html=1;whiteSpace=wrap;connectable=0;strokeColor=inherit;overflow=hidden;fillColor=none;top=0;left=0;bottom=0;right=0;pointerEvents=1;fontSize=16;" vertex="1" parent="plGlUH5s6CTPv3xWeVoY-207">
          <mxGeometry x="60" width="60" height="40" as="geometry">
            <mxRectangle width="60" height="40" as="alternateBounds" />
          </mxGeometry>
        </mxCell>
        <mxCell id="plGlUH5s6CTPv3xWeVoY-210" value="夏" style="shape=partialRectangle;html=1;whiteSpace=wrap;connectable=0;strokeColor=inherit;overflow=hidden;fillColor=none;top=0;left=0;bottom=0;right=0;pointerEvents=1;fontSize=16;" vertex="1" parent="plGlUH5s6CTPv3xWeVoY-207">
          <mxGeometry x="120" width="60" height="40" as="geometry">
            <mxRectangle width="60" height="40" as="alternateBounds" />
          </mxGeometry>
        </mxCell>
        <mxCell id="plGlUH5s6CTPv3xWeVoY-211" value="时尚通勤" style="shape=partialRectangle;html=1;whiteSpace=wrap;connectable=0;strokeColor=inherit;overflow=hidden;fillColor=none;top=0;left=0;bottom=0;right=0;pointerEvents=1;fontSize=16;" vertex="1" parent="plGlUH5s6CTPv3xWeVoY-207">
          <mxGeometry x="180" width="60" height="40" as="geometry">
            <mxRectangle width="60" height="40" as="alternateBounds" />
          </mxGeometry>
        </mxCell>
        <mxCell id="plGlUH5s6CTPv3xWeVoY-212" value="下装" style="shape=partialRectangle;html=1;whiteSpace=wrap;connectable=0;strokeColor=inherit;overflow=hidden;fillColor=none;top=0;left=0;bottom=0;right=0;pointerEvents=1;fontSize=16;" vertex="1" parent="plGlUH5s6CTPv3xWeVoY-207">
          <mxGeometry x="240" width="60" height="40" as="geometry">
            <mxRectangle width="60" height="40" as="alternateBounds" />
          </mxGeometry>
        </mxCell>
        <mxCell id="plGlUH5s6CTPv3xWeVoY-213" value="POLO衫&lt;span style=&quot;white-space: pre;&quot;&gt;&#x9;&lt;/span&gt;" style="shape=partialRectangle;html=1;whiteSpace=wrap;connectable=0;strokeColor=inherit;overflow=hidden;fillColor=none;top=0;left=0;bottom=0;right=0;pointerEvents=1;fontSize=16;" vertex="1" parent="plGlUH5s6CTPv3xWeVoY-207">
          <mxGeometry x="300" width="60" height="40" as="geometry">
            <mxRectangle width="60" height="40" as="alternateBounds" />
          </mxGeometry>
        </mxCell>
        <mxCell id="plGlUH5s6CTPv3xWeVoY-214" value="夏一波&lt;span style=&quot;white-space: pre;&quot;&gt;&#x9;&lt;/span&gt;&lt;br&gt;" style="shape=partialRectangle;html=1;whiteSpace=wrap;connectable=0;strokeColor=inherit;overflow=hidden;fillColor=none;top=0;left=0;bottom=0;right=0;pointerEvents=1;fontSize=16;" vertex="1" parent="plGlUH5s6CTPv3xWeVoY-207">
          <mxGeometry x="360" width="60" height="40" as="geometry">
            <mxRectangle width="60" height="40" as="alternateBounds" />
          </mxGeometry>
        </mxCell>
        <mxCell id="plGlUH5s6CTPv3xWeVoY-215" value="未确定&lt;span style=&quot;white-space: pre;&quot;&gt;&#x9;&lt;/span&gt;" style="shape=partialRectangle;html=1;whiteSpace=wrap;connectable=0;strokeColor=inherit;overflow=hidden;fillColor=none;top=0;left=0;bottom=0;right=0;pointerEvents=1;fontSize=16;" vertex="1" parent="plGlUH5s6CTPv3xWeVoY-207">
          <mxGeometry x="420" width="60" height="40" as="geometry">
            <mxRectangle width="60" height="40" as="alternateBounds" />
          </mxGeometry>
        </mxCell>
        <mxCell id="plGlUH5s6CTPv3xWeVoY-216" value="未确定&#x9;" style="shape=partialRectangle;html=1;whiteSpace=wrap;connectable=0;strokeColor=inherit;overflow=hidden;fillColor=none;top=0;left=0;bottom=0;right=0;pointerEvents=1;fontSize=16;" vertex="1" parent="plGlUH5s6CTPv3xWeVoY-207">
          <mxGeometry x="480" width="60" height="40" as="geometry">
            <mxRectangle width="60" height="40" as="alternateBounds" />
          </mxGeometry>
        </mxCell>
        <mxCell id="plGlUH5s6CTPv3xWeVoY-217" value="……" style="shape=partialRectangle;html=1;whiteSpace=wrap;connectable=0;strokeColor=inherit;overflow=hidden;fillColor=none;top=0;left=0;bottom=0;right=0;pointerEvents=1;fontSize=16;" vertex="1" parent="plGlUH5s6CTPv3xWeVoY-207">
          <mxGeometry x="540" width="60" height="40" as="geometry">
            <mxRectangle width="60" height="40" as="alternateBounds" />
          </mxGeometry>
        </mxCell>
        <mxCell id="plGlUH5s6CTPv3xWeVoY-218" value="5" style="shape=partialRectangle;html=1;whiteSpace=wrap;connectable=0;strokeColor=inherit;overflow=hidden;fillColor=none;top=0;left=0;bottom=0;right=0;pointerEvents=1;fontSize=16;" vertex="1" parent="plGlUH5s6CTPv3xWeVoY-207">
          <mxGeometry x="600" width="60" height="40" as="geometry">
            <mxRectangle width="60" height="40" as="alternateBounds" />
          </mxGeometry>
        </mxCell>
        <mxCell id="plGlUH5s6CTPv3xWeVoY-219" value="" style="shape=curlyBracket;whiteSpace=wrap;html=1;rounded=1;flipH=1;labelPosition=right;verticalLabelPosition=middle;align=left;verticalAlign=middle;" vertex="1" parent="1">
          <mxGeometry x="310" y="150" width="40" height="250" as="geometry" />
        </mxCell>
        <mxCell id="plGlUH5s6CTPv3xWeVoY-220" value="商品筛选" style="text;html=1;align=center;verticalAlign=middle;resizable=0;points=[];autosize=1;strokeColor=none;fillColor=none;fontStyle=1" vertex="1" parent="1">
          <mxGeometry x="346" y="260" width="70" height="30" as="geometry" />
        </mxCell>
        <mxCell id="plGlUH5s6CTPv3xWeVoY-221" value="+ 计算规则" style="text;html=1;align=center;verticalAlign=middle;resizable=0;points=[];autosize=1;strokeColor=none;fillColor=none;fontStyle=1" vertex="1" parent="1">
          <mxGeometry x="406" y="260" width="80" height="30" as="geometry" />
        </mxCell>
        <mxCell id="plGlUH5s6CTPv3xWeVoY-222" value="" style="rounded=1;whiteSpace=wrap;html=1;arcSize=9;" vertex="1" parent="1">
          <mxGeometry x="481" y="80" width="559" height="380" as="geometry" />
        </mxCell>
        <mxCell id="plGlUH5s6CTPv3xWeVoY-223" value="需求量新增/更新处理" style="rounded=1;whiteSpace=wrap;html=1;" vertex="1" parent="1">
          <mxGeometry x="870" y="530" width="170" height="60" as="geometry" />
        </mxCell>
        <mxCell id="plGlUH5s6CTPv3xWeVoY-224" value="1.根据温度(批次时段）&lt;br style=&quot;font-size: 8px;&quot;&gt;筛选符合条件的商品品类厚度" style="rounded=1;whiteSpace=wrap;html=1;fontSize=8;fillColor=#dae8fc;strokeColor=#6c8ebf;" vertex="1" parent="1">
          <mxGeometry x="498" y="130" width="155" height="40" as="geometry" />
        </mxCell>
        <mxCell id="plGlUH5s6CTPv3xWeVoY-225" value="&lt;font style=&quot;font-size: 11px;&quot;&gt;2.根据保有量参数确定各品类厚度导入总量&lt;/font&gt;" style="rounded=1;whiteSpace=wrap;html=1;fontSize=8;fillColor=#dae8fc;strokeColor=#6c8ebf;" vertex="1" parent="1">
          <mxGeometry x="860" y="110" width="150" height="40" as="geometry" />
        </mxCell>
        <mxCell id="plGlUH5s6CTPv3xWeVoY-226" value="" style="edgeStyle=none;orthogonalLoop=1;jettySize=auto;html=1;shape=flexArrow;rounded=1;startSize=8;endSize=8;" edge="1" parent="1">
          <mxGeometry width="100" relative="1" as="geometry">
            <mxPoint x="1067" y="356" as="sourcePoint" />
            <mxPoint x="1133" y="356.46999999999997" as="targetPoint" />
            <Array as="points" />
          </mxGeometry>
        </mxCell>
        <mxCell id="plGlUH5s6CTPv3xWeVoY-227" value="3. 根据经验模型确定各批次导入的品类厚度总量" style="rounded=1;whiteSpace=wrap;html=1;fontSize=8;fillColor=#dae8fc;strokeColor=#6c8ebf;" vertex="1" parent="1">
          <mxGeometry x="860" y="150" width="150" height="40" as="geometry" />
        </mxCell>
        <mxCell id="plGlUH5s6CTPv3xWeVoY-228" value="4. 根据切款算法确定款数和各款需求件数" style="rounded=1;whiteSpace=wrap;html=1;fontSize=8;fillColor=#dae8fc;strokeColor=#6c8ebf;" vertex="1" parent="1">
          <mxGeometry x="860" y="200" width="150" height="40" as="geometry" />
        </mxCell>
        <mxCell id="plGlUH5s6CTPv3xWeVoY-229" value="输入：参数表1" style="shape=document;whiteSpace=wrap;html=1;boundedLbl=1;" vertex="1" parent="1">
          <mxGeometry x="630" y="100" width="60" height="40" as="geometry" />
        </mxCell>
        <mxCell id="plGlUH5s6CTPv3xWeVoY-230" value="" style="shape=flexArrow;endArrow=classic;html=1;rounded=0;endWidth=6.174496644295302;endSize=2.4134228187919464;width=5.6375838926174495;movable=1;resizable=1;rotatable=1;deletable=1;editable=1;locked=0;connectable=1;" edge="1" parent="1">
          <mxGeometry width="50" height="50" relative="1" as="geometry">
            <mxPoint x="740" y="149.99977011494244" as="sourcePoint" />
            <mxPoint x="760" y="149.99977011494244" as="targetPoint" />
          </mxGeometry>
        </mxCell>
        <mxCell id="plGlUH5s6CTPv3xWeVoY-231" value="" style="shape=flexArrow;endArrow=classic;html=1;rounded=0;endWidth=6.174496644295302;endSize=2.4134228187919464;width=5.6375838926174495;movable=1;resizable=1;rotatable=1;deletable=1;editable=1;locked=0;connectable=1;" edge="1" parent="1">
          <mxGeometry width="50" height="50" relative="1" as="geometry">
            <mxPoint x="672" y="150.45977011494244" as="sourcePoint" />
            <mxPoint x="692" y="150.45977011494244" as="targetPoint" />
          </mxGeometry>
        </mxCell>
        <mxCell id="plGlUH5s6CTPv3xWeVoY-232" value="输入：参数表2" style="shape=document;whiteSpace=wrap;html=1;boundedLbl=1;" vertex="1" parent="1">
          <mxGeometry x="980" y="100" width="60" height="40" as="geometry" />
        </mxCell>
        <mxCell id="plGlUH5s6CTPv3xWeVoY-233" value="输入：参数表3" style="shape=document;whiteSpace=wrap;html=1;boundedLbl=1;" vertex="1" parent="1">
          <mxGeometry x="990" y="150" width="60" height="40" as="geometry" />
        </mxCell>
        <mxCell id="plGlUH5s6CTPv3xWeVoY-234" value="拆分函数" style="shape=document;whiteSpace=wrap;html=1;boundedLbl=1;" vertex="1" parent="1">
          <mxGeometry x="980" y="210" width="60" height="40" as="geometry" />
        </mxCell>
        <mxCell id="plGlUH5s6CTPv3xWeVoY-235" value="1.根据预测标签（需）补货筛选符合条件的SKC" style="rounded=1;whiteSpace=wrap;html=1;fontSize=8;fillColor=#ffe6cc;strokeColor=#d79b00;" vertex="1" parent="1">
          <mxGeometry x="498" y="260" width="155" height="40" as="geometry" />
        </mxCell>
        <mxCell id="plGlUH5s6CTPv3xWeVoY-236" value="2. 根据预测系数、销售速率（及预测时间范围）计算预测量" style="rounded=1;whiteSpace=wrap;html=1;fontSize=8;fillColor=#ffe6cc;strokeColor=#d79b00;" vertex="1" parent="1">
          <mxGeometry x="860" y="260" width="150" height="40" as="geometry" />
        </mxCell>
        <mxCell id="plGlUH5s6CTPv3xWeVoY-237" value="1.根据预测标签（需补货）筛选符合条件的SKC" style="rounded=1;whiteSpace=wrap;html=1;fontSize=8;fillColor=#d5e8d4;strokeColor=#82b366;" vertex="1" parent="1">
          <mxGeometry x="498" y="320" width="155" height="40" as="geometry" />
        </mxCell>
        <mxCell id="plGlUH5s6CTPv3xWeVoY-238" value="1. 根据销补规则计算补货需求量" style="rounded=1;whiteSpace=wrap;html=1;fontSize=8;fillColor=#d5e8d4;strokeColor=#82b366;" vertex="1" parent="1">
          <mxGeometry x="860" y="320" width="150" height="40" as="geometry" />
        </mxCell>
        <mxCell id="plGlUH5s6CTPv3xWeVoY-239" value="1.根据预测标签（可退货）筛选符合条件的SKC" style="rounded=1;whiteSpace=wrap;html=1;fontSize=8;fillColor=#d5e8d4;strokeColor=#82b366;" vertex="1" parent="1">
          <mxGeometry x="498" y="380" width="155" height="40" as="geometry" />
        </mxCell>
        <mxCell id="plGlUH5s6CTPv3xWeVoY-240" value="1. 根据退货规则计算可退量" style="rounded=1;whiteSpace=wrap;html=1;fontSize=8;fillColor=#d5e8d4;strokeColor=#82b366;" vertex="1" parent="1">
          <mxGeometry x="860" y="380" width="150" height="40" as="geometry" />
        </mxCell>
        <mxCell id="plGlUH5s6CTPv3xWeVoY-241" value="" style="shape=flexArrow;endArrow=classic;html=1;rounded=0;endWidth=6.174496644295302;endSize=2.4134228187919464;width=5.6375838926174495;movable=1;resizable=1;rotatable=1;deletable=1;editable=1;locked=0;connectable=1;" edge="1" parent="1">
          <mxGeometry width="50" height="50" relative="1" as="geometry">
            <mxPoint x="800" y="150.45977011494244" as="sourcePoint" />
            <mxPoint x="820" y="150.45977011494244" as="targetPoint" />
          </mxGeometry>
        </mxCell>
        <mxCell id="plGlUH5s6CTPv3xWeVoY-242" value="需求量上下限" style="rounded=1;whiteSpace=wrap;html=1;" vertex="1" parent="1">
          <mxGeometry x="620" y="530" width="120" height="60" as="geometry" />
        </mxCell>
        <mxCell id="plGlUH5s6CTPv3xWeVoY-243" value="" style="shape=flexArrow;endArrow=classic;html=1;rounded=0;endWidth=6.174496644295302;endSize=2.4134228187919464;width=5.6375838926174495;movable=1;resizable=1;rotatable=1;deletable=1;editable=1;locked=0;connectable=1;" edge="1" parent="1">
          <mxGeometry width="50" height="50" relative="1" as="geometry">
            <mxPoint x="670" y="279.8697701149424" as="sourcePoint" />
            <mxPoint x="690" y="279.8697701149424" as="targetPoint" />
          </mxGeometry>
        </mxCell>
        <mxCell id="plGlUH5s6CTPv3xWeVoY-244" value="" style="shape=flexArrow;endArrow=classic;html=1;rounded=0;endWidth=6.174496644295302;endSize=2.4134228187919464;width=5.6375838926174495;movable=1;resizable=1;rotatable=1;deletable=1;editable=1;locked=0;connectable=1;" edge="1" parent="1">
          <mxGeometry width="50" height="50" relative="1" as="geometry">
            <mxPoint x="738" y="279.40977011494243" as="sourcePoint" />
            <mxPoint x="758" y="279.40977011494243" as="targetPoint" />
          </mxGeometry>
        </mxCell>
        <mxCell id="plGlUH5s6CTPv3xWeVoY-245" value="" style="shape=flexArrow;endArrow=classic;html=1;rounded=0;endWidth=6.174496644295302;endSize=2.4134228187919464;width=5.6375838926174495;movable=1;resizable=1;rotatable=1;deletable=1;editable=1;locked=0;connectable=1;" edge="1" parent="1">
          <mxGeometry width="50" height="50" relative="1" as="geometry">
            <mxPoint x="798" y="279.8697701149424" as="sourcePoint" />
            <mxPoint x="818" y="279.8697701149424" as="targetPoint" />
          </mxGeometry>
        </mxCell>
        <mxCell id="plGlUH5s6CTPv3xWeVoY-246" value="" style="shape=flexArrow;endArrow=classic;html=1;rounded=0;endWidth=6.174496644295302;endSize=2.4134228187919464;width=5.6375838926174495;movable=1;resizable=1;rotatable=1;deletable=1;editable=1;locked=0;connectable=1;" edge="1" parent="1">
          <mxGeometry width="50" height="50" relative="1" as="geometry">
            <mxPoint x="670" y="340.0597701149424" as="sourcePoint" />
            <mxPoint x="690" y="340.0597701149424" as="targetPoint" />
          </mxGeometry>
        </mxCell>
        <mxCell id="plGlUH5s6CTPv3xWeVoY-247" value="" style="shape=flexArrow;endArrow=classic;html=1;rounded=0;endWidth=6.174496644295302;endSize=2.4134228187919464;width=5.6375838926174495;movable=1;resizable=1;rotatable=1;deletable=1;editable=1;locked=0;connectable=1;" edge="1" parent="1">
          <mxGeometry width="50" height="50" relative="1" as="geometry">
            <mxPoint x="738" y="339.59977011494243" as="sourcePoint" />
            <mxPoint x="758" y="339.59977011494243" as="targetPoint" />
          </mxGeometry>
        </mxCell>
        <mxCell id="plGlUH5s6CTPv3xWeVoY-248" value="" style="shape=flexArrow;endArrow=classic;html=1;rounded=0;endWidth=6.174496644295302;endSize=2.4134228187919464;width=5.6375838926174495;movable=1;resizable=1;rotatable=1;deletable=1;editable=1;locked=0;connectable=1;" edge="1" parent="1">
          <mxGeometry width="50" height="50" relative="1" as="geometry">
            <mxPoint x="798" y="340.0597701149424" as="sourcePoint" />
            <mxPoint x="818" y="340.0597701149424" as="targetPoint" />
          </mxGeometry>
        </mxCell>
        <mxCell id="plGlUH5s6CTPv3xWeVoY-249" value="" style="shape=flexArrow;endArrow=classic;html=1;rounded=0;endWidth=6.174496644295302;endSize=2.4134228187919464;width=5.6375838926174495;movable=1;resizable=1;rotatable=1;deletable=1;editable=1;locked=0;connectable=1;" edge="1" parent="1">
          <mxGeometry width="50" height="50" relative="1" as="geometry">
            <mxPoint x="670" y="400.4597701149424" as="sourcePoint" />
            <mxPoint x="690" y="400.4597701149424" as="targetPoint" />
          </mxGeometry>
        </mxCell>
        <mxCell id="plGlUH5s6CTPv3xWeVoY-250" value="" style="shape=flexArrow;endArrow=classic;html=1;rounded=0;endWidth=6.174496644295302;endSize=2.4134228187919464;width=5.6375838926174495;movable=1;resizable=1;rotatable=1;deletable=1;editable=1;locked=0;connectable=1;" edge="1" parent="1">
          <mxGeometry width="50" height="50" relative="1" as="geometry">
            <mxPoint x="738" y="399.9997701149424" as="sourcePoint" />
            <mxPoint x="758" y="399.9997701149424" as="targetPoint" />
          </mxGeometry>
        </mxCell>
        <mxCell id="plGlUH5s6CTPv3xWeVoY-251" value="" style="shape=flexArrow;endArrow=classic;html=1;rounded=0;endWidth=6.174496644295302;endSize=2.4134228187919464;width=5.6375838926174495;movable=1;resizable=1;rotatable=1;deletable=1;editable=1;locked=0;connectable=1;" edge="1" parent="1">
          <mxGeometry width="50" height="50" relative="1" as="geometry">
            <mxPoint x="798" y="400.4597701149424" as="sourcePoint" />
            <mxPoint x="818" y="400.4597701149424" as="targetPoint" />
          </mxGeometry>
        </mxCell>
      </root>
    </mxGraphModel>
  </diagram>
</mxfile>
